<svg width="48" height="48" viewBox="0 0 48 48" fill="none" xmlns="http://www.w3.org/2000/svg">
<g clip-path="url(#clip0_744_606)">
<path d="M7.60716 36.4299C6.33469 35.2869 5.18288 34.3124 4.10981 33.485C3.03684 32.6575 2.04253 31.9773 1.08506 31.4227C-0.361687 30.5846 -0.361687 28.5094 1.08506 27.6713C2.04253 27.1167 3.03684 26.4365 4.10981 25.609C5.18278 24.7816 6.33459 23.8072 7.60716 22.6641V36.4299Z" fill="#3F4E6A"/>
<path d="M17.663 28.7524C15.9418 27.2078 8.57472 24.343 6.11762 24.646C6.03887 24.8277 5.96416 25.0114 5.89394 25.1971C5.38103 26.5553 5.10156 28.02 5.10156 29.547C5.10156 31.0741 5.38112 32.5388 5.89394 33.897C7.06141 36.9887 9.43787 39.5287 12.4784 40.9962C14.2955 41.8733 16.3498 42.3674 18.5249 42.3674C18.5513 42.3674 18.5776 42.3665 18.604 42.3663C18.085 39.1107 17.6879 33.909 17.663 28.7524Z" fill="#F7E969"/>
<path d="M18.6045 16.7277C18.5781 16.7275 18.5519 16.7266 18.5255 16.7266C16.3504 16.7266 14.2961 17.2207 12.479 18.0977C9.62123 19.4772 7.35023 21.8041 6.11816 24.6459C6.46616 25.2426 6.88232 25.8039 7.36504 26.317C9.0937 28.1552 11.5319 29.2094 14.0548 29.2094C15.1064 29.2094 16.364 29.0445 17.6636 28.7523C17.642 24.2761 17.9009 19.8336 18.6045 16.7277Z" fill="#F8D071"/>
<path d="M20.3248 27.7354C18.3097 27.2082 14.0304 27.3548 12.4864 29.0728C12.4822 29.2305 12.4785 29.3883 12.4785 29.5471C12.4785 32.7104 13.3237 35.6491 14.771 38.0869C15.7821 39.7898 17.0878 41.2467 18.6038 42.3665C20.7495 42.3547 22.7762 41.8629 24.5712 40.9964C25.7921 40.4071 26.9057 39.6446 27.8771 38.7432C27.7468 38.7024 21.6234 29.0768 20.3248 27.7354Z" fill="#3F4E6A"/>
<path d="M24.5712 18.0977C22.7761 17.2313 20.7495 16.7395 18.6037 16.7277C17.0877 17.8473 15.7819 19.3044 14.7709 21.0073C13.3963 23.3226 12.5663 26.0903 12.4863 29.0728C13.0014 29.1627 13.5257 29.2095 14.0538 29.2095C15.1263 29.2095 16.4126 29.0389 17.7396 28.7357C18.0268 29.8639 18.4555 30.9374 19.0241 31.9483C20.9433 35.3605 24.1703 37.588 27.8771 38.743C29.325 37.3995 30.457 35.7472 31.1556 33.897C31.6685 32.5389 31.948 31.0741 31.948 29.547C31.948 28.0199 31.6684 26.5553 31.1556 25.197C29.9881 22.1053 27.6117 19.5654 24.5712 18.0977Z" fill="#223661"/>
<path d="M26.3917 22.1664C24.9864 23.5717 22.2535 23.0649 19.7169 21.9485C17.7015 21.0615 15.81 19.7898 14.8068 18.7866C13.6283 17.6081 13.0628 16.0489 13.1102 14.505C13.1539 13.0804 13.7194 11.6687 14.8068 10.5813C15.8942 9.49389 17.3058 8.92839 18.7304 8.8847C20.2744 8.83736 21.8335 9.40286 23.0119 10.5813C24.0152 11.5845 25.2869 13.476 26.1739 15.4915C27.2902 18.0281 27.797 20.761 26.3917 22.1664Z" fill="#81DDFD"/>
<path d="M24.1553 11.9568C21.615 13.6868 19.6461 16.1053 18.489 18.9683C18.2232 19.6259 18.0028 20.3004 17.8262 20.9888C18.4264 21.3342 19.0647 21.6617 19.7167 21.9487C22.2533 23.0649 24.9862 23.5718 26.3915 22.1664C27.7969 20.7611 27.29 18.0282 26.1738 15.4916C25.6024 14.1933 24.8714 12.9479 24.1553 11.9568Z" fill="#30CDFA"/>
<path d="M17.3081 25.3638C19.4216 23.2346 20.4764 18.6475 20.3073 15.6845C20.1273 15.6075 19.9454 15.5328 19.7617 15.4614C17.7095 14.6634 15.4727 14.2252 14.054 14.2252C12.3874 14.2252 10.885 14.9279 9.82677 16.0531C8.85027 17.0913 8.25195 18.4894 8.25195 20.0272C8.25195 21.565 8.85027 22.9631 9.82677 24.0014C10.885 25.1266 12.3875 25.8292 14.054 25.8292C14.9128 25.8292 16.072 25.6676 17.3081 25.3638Z" fill="#A3E6FF"/>
<path d="M24.6355 20.0273C24.6355 18.1811 22.6585 16.692 20.3071 15.6846C19.5755 16.6931 18.9639 17.7933 18.4889 18.9683C17.682 20.9649 17.2806 23.1216 17.308 25.3638C18.1136 25.1658 18.9518 24.9079 19.7617 24.593C22.3446 23.5888 24.6355 22.0147 24.6355 20.0273Z" fill="#81DDFD"/>
<path d="M47.063 20.2349C45.8971 17.3502 43.6837 15.0018 40.6477 13.6461C38.8261 12.8327 36.7085 12.3767 34.3434 12.3767C34.2413 12.3767 34.1401 12.3787 34.0388 12.3804C26.0698 17.4894 26.1166 31.6713 35.253 36.2846C36.9845 36.2081 38.6282 35.9132 40.1238 35.412C43.018 34.4421 45.3593 32.7025 46.7155 30.291C47.5399 28.8256 48.0005 27.1121 48.0005 25.1726C48.0005 23.4224 47.677 21.7542 47.063 20.2349Z" fill="#F7E969"/>
<path d="M34.038 12.3804C31.7957 12.4179 29.7812 12.8679 28.0384 13.6461C25.0025 15.0017 22.789 17.3502 21.623 20.2349C21.009 21.7542 20.6855 23.4223 20.6855 25.1726C20.6855 27.1122 21.1461 28.8256 21.9704 30.291C23.3268 32.7025 25.6679 34.4422 28.5621 35.412C30.3176 36.0003 32.2765 36.3054 34.3426 36.3054C34.6484 36.3054 34.9515 36.2979 35.2522 36.2846C30.8068 30.6248 31.3265 18.7204 34.038 12.3804Z" fill="#F8D071"/>
<path d="M30.5341 17.8129C30.1458 17.8129 29.831 17.4981 29.831 17.1097C29.831 16.2617 29.5199 14.391 28.8369 12.2877C28.4113 10.9776 27.901 9.77718 27.3609 8.81662C27.1706 8.47809 27.2906 8.04937 27.6292 7.85906C27.9677 7.66893 28.3963 7.78893 28.5866 8.12737C29.1799 9.18262 29.714 10.4361 30.1743 11.8534C30.81 13.811 31.2371 15.9233 31.2371 17.1096C31.2372 17.4981 30.9224 17.8129 30.5341 17.8129Z" fill="#3F4E6A"/>
<path d="M27.9738 10.0919C29.2052 10.0919 30.2035 9.09363 30.2035 7.86222C30.2035 6.63082 29.2052 5.63257 27.9738 5.63257C26.7424 5.63257 25.7441 6.63082 25.7441 7.86222C25.7441 9.09363 26.7424 10.0919 27.9738 10.0919Z" fill="#223661"/>
<path d="M38.1523 17.8128C37.764 17.8128 37.4492 17.4981 37.4492 17.1097C37.4492 15.9234 37.8763 13.811 38.5121 11.8534C38.9724 10.4362 39.5065 9.18264 40.0997 8.12739C40.29 7.78886 40.7186 7.66867 41.0572 7.85908C41.3957 8.04939 41.5158 8.47802 41.3255 8.81664C40.7855 9.7772 40.2751 10.9776 39.8495 12.2877C39.1664 14.391 38.8554 16.2617 38.8554 17.1098C38.8555 17.4981 38.5407 17.8128 38.1523 17.8128Z" fill="#3F4E6A"/>
<path d="M40.7121 10.0919C41.9435 10.0919 42.9417 9.09363 42.9417 7.86222C42.9417 6.63082 41.9435 5.63257 40.7121 5.63257C39.4807 5.63257 38.4824 6.63082 38.4824 7.86222C38.4824 9.09363 39.4807 10.0919 40.7121 10.0919Z" fill="#223661"/>
<path d="M26.7735 28.721C28.316 28.721 29.5665 27.7252 29.5665 26.4968C29.5665 25.2684 28.316 24.2726 26.7735 24.2726C25.2309 24.2726 23.9805 25.2684 23.9805 26.4968C23.9805 27.7252 25.2309 28.721 26.7735 28.721Z" fill="#FFA1AC"/>
<path d="M41.9131 28.721C43.4556 28.721 44.7061 27.7252 44.7061 26.4968C44.7061 25.2684 43.4556 24.2726 41.9131 24.2726C40.3706 24.2726 39.1201 25.2684 39.1201 26.4968C39.1201 27.7252 40.3706 28.721 41.9131 28.721Z" fill="#FFA1AC"/>
<path d="M29.7311 24.7795C29.3428 24.7795 29.028 24.4648 29.028 24.0764C29.028 23.731 28.747 23.4501 28.4017 23.4501C28.0564 23.4501 27.7754 23.731 27.7754 24.0764C27.7754 24.4648 27.4606 24.7795 27.0723 24.7795C26.684 24.7795 26.3691 24.4648 26.3691 24.0764C26.3691 22.9556 27.281 22.0438 28.4017 22.0438C29.5225 22.0438 30.4342 22.9556 30.4342 24.0764C30.4342 24.4648 30.1194 24.7795 29.7311 24.7795Z" fill="#425460"/>
<path d="M41.6149 24.7795C41.2266 24.7795 40.9118 24.4648 40.9118 24.0764C40.9118 23.731 40.6308 23.4501 40.2854 23.4501C39.9401 23.4501 39.6592 23.731 39.6592 24.0764C39.6592 24.4648 39.3444 24.7795 38.9561 24.7795C38.5677 24.7795 38.2529 24.4648 38.2529 24.0764C38.2529 22.9556 39.1647 22.0438 40.2854 22.0438C41.4062 22.0438 42.318 22.9556 42.318 24.0764C42.318 24.4648 42.0032 24.7795 41.6149 24.7795Z" fill="#425460"/>
<path d="M34.3438 26.9758C33.6 26.9758 32.8928 26.6537 32.4035 26.0922C32.1484 25.7994 32.1789 25.3554 32.4717 25.1002C32.7644 24.845 33.2085 24.8756 33.4637 25.1683C33.6859 25.4234 34.0067 25.5696 34.3439 25.5696C34.681 25.5696 35.0018 25.4233 35.2239 25.1684C35.479 24.8755 35.9231 24.8451 36.2159 25.1002C36.5086 25.3553 36.5392 25.7994 36.2842 26.0921C35.7947 26.6538 35.0876 26.9758 34.3438 26.9758Z" fill="#425460"/>
</g>
<defs>
<clipPath id="clip0_744_606">
<rect width="48" height="48" fill="white"/>
</clipPath>
</defs>
</svg>
